<?xml version="1.0" encoding="utf-8"?>
<!-- Generator: Adobe Illustrator 22.1.0, SVG Export Plug-In . SVG Version: 6.00 Build 0)  -->
<svg version="1.1" id="Livello_1" xmlns="http://www.w3.org/2000/svg" xmlns:xlink="http://www.w3.org/1999/xlink" x="0px" y="0px"
	 viewBox="0 0 580 279" style="enable-background:new 0 0 580 279;" xml:space="preserve">
<style type="text/css">
	.st0{fill:url(#SVGID_1_);}
	.st1{fill:url(#SVGID_2_);}
	.st2{fill:url(#SVGID_3_);}
	.st3{fill:url(#SVGID_4_);}
	.st4{fill:#FEC652;}
	.st5{fill:#BC2A77;}
	.st6{fill:#4A6880;}
	.st7{fill:#FFFFFF;}
	.st8{fill:#FFC269;}
	.st9{fill:#263642;}
</style>
<linearGradient id="SVGID_1_" gradientUnits="userSpaceOnUse" x1="485.8142" y1="284.9923" x2="460.8897" y2="0.1049">
	<stop  offset="0" style="stop-color:#263642;stop-opacity:0"/>
	<stop  offset="1" style="stop-color:#263642;stop-opacity:0.5"/>
</linearGradient>
<polygon class="st0" points="373.4,7.8 373.4,168.6 436.2,176.9 536,276.6 581.4,276.6 581.4,208.3 383,10 "/>
<linearGradient id="SVGID_2_" gradientUnits="userSpaceOnUse" x1="345.32" y1="285.0915" x2="320.3956" y2="0.2041">
	<stop  offset="0" style="stop-color:#263642;stop-opacity:0"/>
	<stop  offset="1" style="stop-color:#263642;stop-opacity:0.5"/>
</linearGradient>
<polygon class="st1" points="232.9,7.9 232.9,168.7 295.7,177 395.5,276.7 440.9,276.7 440.9,208.4 242.5,10.1 "/>
<linearGradient id="SVGID_3_" gradientUnits="userSpaceOnUse" x1="208.5231" y1="285.0915" x2="183.5987" y2="0.2041">
	<stop  offset="0" style="stop-color:#263642;stop-opacity:0"/>
	<stop  offset="1" style="stop-color:#263642;stop-opacity:0.5"/>
</linearGradient>
<polygon class="st2" points="96.1,7.9 96.1,168.7 158.9,177 258.7,276.7 304.1,276.7 304.1,208.4 105.7,10.1 "/>
<linearGradient id="SVGID_4_" gradientUnits="userSpaceOnUse" x1="290.3119" y1="302.1335" x2="280.3957" y2="188.7911">
	<stop  offset="0" style="stop-color:#263642;stop-opacity:0"/>
	<stop  offset="1" style="stop-color:#263642;stop-opacity:0.5"/>
</linearGradient>
<polygon class="st3" points="14.8,212 81.6,278.9 556,278.9 455.9,178.9 "/>
<path class="st4" d="M338.7,133.7l39.5,14.8c3.6,1.4,7.7-0.5,9-4.1l4.9-13.2c1.4-3.6-0.5-7.7-4.1-9l-39.5-14.8
	c-3.6-1.4-7.7,0.5-9,4.1l-4.9,13.2C333.3,128.3,335.1,132.4,338.7,133.7z"/>
<path class="st5" d="M410.7,126.6L376.3,151c-3.2,2.2-7.5,1.5-9.8-1.7l-8.1-11.5c-2.2-3.2-1.5-7.5,1.7-9.8l34.4-24.4
	c3.2-2.2,7.5-1.5,9.8,1.7l8.1,11.5C414.6,120,413.8,124.4,410.7,126.6z"/>
<path class="st4" d="M57.8,133.7l39.5,14.8c3.6,1.4,7.7-0.5,9-4.1l4.9-13.2c1.4-3.6-0.5-7.7-4.1-9l-39.5-14.8
	c-3.6-1.4-7.7,0.5-9,4.1l-4.9,13.2C52.3,128.3,54.1,132.4,57.8,133.7z"/>
<path class="st5" d="M129.7,126.6L95.3,151c-3.2,2.2-7.5,1.5-9.8-1.7l-8.1-11.5c-2.2-3.2-1.5-7.5,1.7-9.8l34.4-24.4
	c3.2-2.2,7.5-1.5,9.8,1.7l8.1,11.5C133.6,120,132.9,124.4,129.7,126.6z"/>
<path class="st4" d="M141.8,183H43.4c-3.9,0-7-3.1-7-7v-28.1c0-3.9,3.1-7,7-7h98.4c3.9,0,7,3.1,7,7V176
	C148.8,179.9,145.6,183,141.8,183z"/>
<path class="st6" d="M71.5,162c-7.8,0-14-6.3-14-14v-7h-14c-3.9,0-7,3.1-7,7V176c0,3.9,3.1,7,7,7h98.3c3.9,0,7-3.1,7-7v-14L71.5,162
	L71.5,162z"/>
<path class="st4" d="M240.1,119.8c0,11.6-9.4,21.1-21.1,21.1s-21.1-9.4-21.1-21.1s9.4-21.1,21.1-21.1S240.1,108.2,240.1,119.8z"/>
<path class="st5" d="M268.2,126.9c0,7.8-6.3,14-14,14c-7.8,0-14-6.3-14-14c0-7.8,6.3-14.1,14-14.1
	C261.9,112.8,268.2,119.1,268.2,126.9z"/>
<g>
	<path class="st7" d="M443.8,211.1H22.3c-3.9,0-7-3.1-7-7v-14.1c0-3.9,3.1-7,7-7h421.5c3.9,0,7,3.1,7,7v14.1
		C450.8,208,447.6,211.1,443.8,211.1z"/>
	<path class="st7" d="M106.6,28.5c0,7.8-6.3,14-14.1,14c-7.8,0-14-6.3-14-14c0-7.8,6.3-14,14-14C100.3,14.5,106.6,20.8,106.6,28.5z"
		/>
	<path class="st7" d="M387.6,28.5c0,7.8-6.3,14-14,14c-7.8,0-14.1-6.3-14.1-14c0-7.8,6.3-14,14.1-14
		C381.3,14.5,387.6,20.8,387.6,28.5z"/>
	<path class="st7" d="M247.1,28.5c0,7.8-6.3,14-14,14s-14-6.3-14-14c0-7.8,6.3-14,14-14S247.1,20.8,247.1,28.5z"/>
</g>
<path class="st4" d="M282.2,183h-98.4c-3.9,0-7-3.1-7-7v-28.1c0-3.9,3.1-7,7-7h98.4c3.9,0,7,3.1,7,7V176
	C289.2,179.9,286.1,183,282.2,183z"/>
<path class="st6" d="M212,162c-7.8,0-14-6.3-14-14v-7h-14.1c-3.9,0-7,3.1-7,7V176c0,3.9,3.1,7,7,7h98.3c3.9,0,7-3.1,7-7v-14L212,162
	L212,162z"/>
<path class="st4" d="M422.7,183h-98.4c-3.9,0-7-3.1-7-7v-28.1c0-3.9,3.1-7,7-7h98.4c3.9,0,7,3.1,7,7V176
	C429.7,179.9,426.6,183,422.7,183z"/>
<path class="st6" d="M352.5,162c-7.8,0-14-6.3-14-14v-7h-14c-3.9,0-7,3.1-7,7V176c0,3.9,3.1,7,7,7h98.3c3.9,0,7-3.1,7-7v-14
	L352.5,162L352.5,162z"/>
<path class="st8" d="M229.5,130.4c-11.6,0-21.1-9.4-21.1-21.1c0-3.1,0.7-6,1.9-8.6c-7.3,3.3-12.4,10.6-12.4,19.2
	c0,11.6,9.4,21.1,21.1,21.1c8.5,0,15.9-5.1,19.2-12.4C235.5,129.7,232.6,130.4,229.5,130.4z"/>
<path class="st9" d="M443.8,176.5h-7.5c0-0.2,0-0.3,0-0.5v-28.1c0-7.5-6.1-13.6-13.6-13.6h-11.8l3.5-2.4c6.2-4.2,7.8-12.7,3.5-18.9
	l-8-11.6c-2.1-3-5.2-5-8.7-5.7c-3.6-0.7-7.2,0.1-10.2,2.2l-10.9,7.5V48.1c8.2-2.8,14-10.5,14-19.5c0-11.4-9.3-20.6-20.6-20.6
	c-11.4,0-20.6,9.2-20.6,20.6c0,9.1,5.9,16.8,14.1,19.5v60.3l-14.8-6c-6.9-2.8-14.9,0.5-17.7,7.4l-5.3,13c-1.4,3.4-1.4,7.1,0.1,10.4
	c0.2,0.4,0.3,0.8,0.5,1.1h-5.4c-7.5,0-13.6,6.1-13.6,13.6V176c0,0.2,0,0.3,0,0.5h-15c0-0.1,0-0.3,0-0.4v-28.1
	c0-6.9-5.2-12.6-11.9-13.5l10-10c2.6-2.6,2.6-6.7,0-9.3c-2.6-2.6-6.7-2.6-9.3,0l-9.9,9.9c-0.8-10-8.8-18-18.8-18.8l2.9-2.9
	c2.6-2.6,2.6-6.7,0-9.3c-2.6-2.6-6.7-2.6-9.3,0l-8.7,8.7c-0.4-0.5-0.7-0.9-1.1-1.4V48.1c8.2-2.8,14-10.5,14-19.5
	c0-11.4-9.2-20.6-20.6-20.6c-11.4,0-20.6,9.2-20.6,20.6c0,9.1,5.9,16.8,14,19.5v45.2c-2.4-0.7-4.9-1-7.5-1
	c-15.2,0-27.6,12.4-27.6,27.6c0,2,0.2,3.9,0.6,5.8l-17.5-17.5c-2.6-2.6-6.7-2.6-9.3,0c-2.6,2.6-2.6,6.7,0,9.3l17,17
	c-6.7,0.8-11.9,6.6-11.9,13.5V176c0,0.1,0,0.3,0,0.4h-15c0-0.1,0-0.3,0-0.4v-28.1c0-7.5-6.1-13.6-13.6-13.6h-11.8l3.5-2.4
	c6.2-4.2,7.8-12.7,3.5-18.9l-8-11.6c-2.1-3-5.2-5-8.7-5.7c-3.6-0.7-7.2,0.1-10.2,2.2l-10.9,7.5V48.1c8.2-2.8,14.1-10.5,14.1-19.5
	c0-11.4-9.3-20.6-20.6-20.6C81.2,7.9,72,17.2,72,28.5c0,9.1,5.9,16.8,14,19.5v60.3l-14.8-6c-6.9-2.8-14.9,0.5-17.7,7.4l-5.3,13
	c-1.4,3.4-1.4,7.1,0,10.4c0.2,0.4,0.3,0.8,0.5,1.1h-5.4c-7.5,0-13.6,6.1-13.6,13.6V176c0,0.1,0,0.3,0,0.4h-7.5
	c-7.5,0-13.6,6.1-13.6,13.6v14c0,7.5,6.1,13.6,13.6,13.6h421.4c7.5,0,13.6-6.1,13.6-13.6v-14C457.4,182.6,451.3,176.5,443.8,176.5z
	 M398.5,108.8c0,0,0.2-0.1,0.3-0.1c0.2,0,0.3,0.2,0.3,0.2l8,11.6c0.1,0.2,0.1,0.5-0.1,0.6l-19.3,13.2h-23.3l-0.7-1.1
	c-0.1-0.2-0.1-0.5,0.1-0.6L398.5,108.8z M373.5,21.1c4.1,0,7.5,3.4,7.5,7.5c0,4.1-3.4,7.5-7.5,7.5c-4.1,0-7.5-3.4-7.5-7.5
	C366,24.4,369.4,21.1,373.5,21.1z M341.3,127.8l5.3-13c0.1-0.2,0.4-0.3,0.6-0.2l12.3,5l-3.2,2.2c-3,2.1-5,5.2-5.7,8.7
	c-0.1,0.5-0.2,1-0.2,1.5l-8.9-3.6C341.3,128.3,341.2,128,341.3,127.8z M261.6,126.9c0,4.1-3.4,7.5-7.5,7.5c-4.1,0-7.5-3.4-7.5-7.5
	c0-4.1,3.4-7.5,7.5-7.5C258.2,119.4,261.6,122.7,261.6,126.9z M233.1,21.1c4.1,0,7.5,3.4,7.5,7.5c0,4.1-3.4,7.5-7.5,7.5
	c-4.1,0-7.5-3.4-7.5-7.5C225.6,24.4,228.9,21.1,233.1,21.1z M219,105.3c8,0,14.5,6.5,14.5,14.5s-6.5,14.5-14.5,14.5
	s-14.5-6.5-14.5-14.5S211,105.3,219,105.3z M183.4,176v-28.1c0-0.2,0.2-0.4,0.4-0.4h26.3l-2.8,2.8c-2.6,2.6-2.6,6.7,0,9.3
	c1.3,1.3,3,1.9,4.6,1.9c1.7,0,3.4-0.6,4.6-1.9l12.1-12.1h53.5c0.2,0,0.4,0.2,0.4,0.4V176c0,0.2-0.2,0.4-0.4,0.4h-24l-5.2-10.4
	c-1.6-3.2-5.6-4.6-8.8-2.9c-3.2,1.6-4.6,5.6-2.9,8.8l2.3,4.5h-59.6C183.6,176.5,183.4,176.3,183.4,176z M117.5,108.8
	c0,0,0.2-0.1,0.3-0.1c0.2,0,0.3,0.2,0.3,0.2l8,11.6c0.1,0.2,0.1,0.5-0.1,0.6l-19.3,13.2H83.4l-0.7-1.1c-0.1-0.2-0.1-0.5,0.1-0.6
	L117.5,108.8z M92.6,21.1c4.1,0,7.5,3.4,7.5,7.5c0,4.1-3.4,7.5-7.5,7.5c-4.1,0-7.5-3.4-7.5-7.5C85.1,24.4,88.5,21.1,92.6,21.1z
	 M60.4,127.8l5.3-13c0.1-0.2,0.4-0.3,0.6-0.2l12.3,5l-3.2,2.2c-3.5,2.4-5.6,6.2-5.8,10.2l-8.9-3.6C60.4,128.3,60.3,128,60.4,127.8z
	 M43,176v-28.1c0-0.2,0.2-0.4,0.4-0.4h17.5l-2.3,4.5c-1.6,3.2-0.3,7.2,2.9,8.8c0.9,0.5,1.9,0.7,2.9,0.7c2.4,0,4.7-1.3,5.9-3.6
	l5.2-10.4H80h0h0h28.8h0h1.2l-2.3,4.5c-1.6,3.2-0.3,7.2,2.9,8.8c0.9,0.5,1.9,0.7,2.9,0.7c2.4,0,4.7-1.3,5.9-3.6l5.2-10.4h17
	c0.2,0,0.4,0.2,0.4,0.4V176c0,0.2-0.2,0.4-0.4,0.4h-39.4l-12.1-12.1c-2.6-2.6-6.7-2.6-9.3,0c-2.6,2.6-2.6,6.7,0,9.3l2.8,2.8H43.4
	C43.2,176.5,43,176.3,43,176z M444.2,204.1c0,0.2-0.2,0.5-0.5,0.5H22.3c-0.2,0-0.5-0.2-0.5-0.5v-14c0-0.2,0.2-0.5,0.5-0.5h309
	c3.6,0,6.6-2.9,6.6-6.6c0-3.6-2.9-6.6-6.6-6.6h-7c-0.2,0-0.5-0.2-0.5-0.5v-28.1c0-0.2,0.2-0.5,0.5-0.5h17l5.2,10.4
	c1.1,2.3,3.5,3.6,5.9,3.6c1,0,2-0.2,2.9-0.7c3.2-1.6,4.6-5.6,2.9-8.8l-2.3-4.5h4.8h0h0h21.4l-7.2,10.9c-2,3-1.2,7.1,1.8,9.1
	c1.1,0.7,2.4,1.1,3.6,1.1c2.1,0,4.2-1,5.5-2.9l12.1-18.1h24.6c0.2,0,0.5,0.2,0.5,0.5V176c0,0.2-0.2,0.5-0.5,0.5h-10.4l2.3-4.5
	c1.6-3.2,0.3-7.2-2.9-8.8c-3.2-1.6-7.2-0.3-8.8,2.9l-5.2,10.4h-38.1c-3.6,0-6.6,2.9-6.6,6.6c0,3.6,2.9,6.6,6.6,6.6h84.3
	c0.2,0,0.5,0.2,0.5,0.5V204.1z"/>
</svg>
