<?xml version="1.0" encoding="utf-8"?>
<!-- Generator: Adobe Illustrator 22.1.0, SVG Export Plug-In . SVG Version: 6.00 Build 0)  -->
<svg version="1.1" id="Livello_1" xmlns="http://www.w3.org/2000/svg" xmlns:xlink="http://www.w3.org/1999/xlink" x="0px" y="0px"
	 viewBox="0 0 450 302" style="enable-background:new 0 0 450 302;" xml:space="preserve">
<style type="text/css">
	.st0{opacity:0.24;fill:#263642;}
	.st1{opacity:0.24;fill:url(#SVGID_1_);}
	.st2{fill:#BC2A77;}
	.st3{fill:#94D1FF;}
	.st4{fill:#FEC652;}
	.st5{fill:#FFFFFF;}
	.st6{fill:#335E80;}
	.st7{fill:#263642;}
</style>
<polygon class="st0" points="25,247.4 73.5,295.9 367.1,295.9 429.4,295.9 449.6,295.9 182.4,28.7 81.6,255.1 41.3,255.1 "/>
<linearGradient id="SVGID_1_" gradientUnits="userSpaceOnUse" x1="352.8229" y1="346.6937" x2="211.0352" y2="101.1102">
	<stop  offset="0" style="stop-color:#263642;stop-opacity:0"/>
	<stop  offset="1" style="stop-color:#263642"/>
</linearGradient>
<polygon class="st1" points="177.6,220.8 218.2,194.9 222.1,94.7 429.7,302.3 255.2,302.3 "/>
<g>
	<path class="st2" d="M171.5,64l-98.1,0.3v171.8c0,11.3,6.3,20.4,14,20.4h70.1c7.7,0,14-9.2,14-20.4V64.1L171.5,64z"/>
	<polygon class="st3" points="171.6,236.1 171.6,64.1 171.5,64 72.9,64.3 72.9,236.1 	"/>
	<path class="st4" d="M202.3,108.3v20.4v66.5v20.4c11.3,0,20.4-9.2,20.4-20.4v-66.5C222.7,117.4,213.5,108.3,202.3,108.3z"/>
	<path class="st5" d="M178.3,57.9c-2.9-4.2-7.3-7.3-12.4-8.4c-5.9-1.3-11.5,0-15.9,3c-2.8-8-10.4-13.7-19.3-13.7
		c-3.9,0-7.6,1.1-10.7,3.1C112.5,33.4,101.7,28,89.5,28c-15.3,0-28.7,8.6-35.7,21C29,45.8,7.5,65.2,7.5,89.5c0,15.8,0,34.3,0,38.3
		c0,5.6,4.8,10.2,10.5,10.2s10.2-4.6,10.5-10.3V110V87c12-0.1,22.2-7.1,27.2-17.2c0.9-1.7,2.6-2.9,4.6-2.9c2.4,0,4.6,0.9,6.3,2.5
		c4.6,4.5,10.9,7.3,17.9,7.3c7.2,0,13.7-3,18.4-7.8c1.3-1.3,3-2.1,4.9-2.1c22.7,0,22.5,13,22.5,20.1v20.4c0,5.6,4.6,10.2,10.2,10.2
		s10.2-4.6,10.2-10.2V87.2v-23C161.4,69.7,172.7,65.9,178.3,57.9z"/>
	<path class="st6" d="M130.4,230.6c-2.8,0-5.1,2.3-5.1,5.1c0,2.8,2.3,5.1,5.1,5.1c2.8,0,5.1-2.3,5.1-5.1
		C135.5,232.9,133.3,230.6,130.4,230.6z"/>
	<path class="st7" d="M58.6,102.3c-2.8,0-5.1,2.3-5.1,5.1V205c0,2.8,2.3,5.1,5.1,5.1c2.8,0,5.1-2.3,5.1-5.1v-97.6
		C63.7,104.6,61.4,102.3,58.6,102.3z"/>
	<path class="st7" d="M99.5,102.3c-2.8,0-5.1,2.3-5.1,5.1V205c0,2.8,2.3,5.1,5.1,5.1s5.1-2.3,5.1-5.1v-97.6
		C104.6,104.6,102.3,102.3,99.5,102.3z"/>
	<path class="st7" d="M48.9,261.6h102.2c14.1,0,25.6-11.5,25.6-25.6v-15.3h25.6c14.1,0,25.6-11.5,25.6-25.6v-87.4
		c0-14.1-11.5-25.6-25.6-25.6h-25.6V66.7c8-6,11.8-16.2,9.6-26.2c-2.1-9.4-9.9-17.1-19.3-19.1c-5-1.1-10.1-0.7-14.7,1.1
		c-4.6-7.3-12.7-11.9-21.6-11.9c-3.3,0-6.6,0.6-9.6,1.9c-8.6-8.1-19.8-12.6-31.5-12.6c-15.4,0-29.9,7.9-38.4,20.7
		C24.5,19.2,2.4,40.4,2.4,66.5v61.3c0,8.5,7,15.3,15.6,15.3c1.9,0,3.7-0.3,5.4-1v93.9C23.3,250.2,34.8,261.6,48.9,261.6z
		 M151.1,251.4H48.9c-6.7,0-12.3-4.3-14.5-10.2H110c2.8,0,5.1-2.3,5.1-5.1c0-2.8-2.3-5.1-5.1-5.1H33.6V127.7V91.7
		C45,89.9,55,82.7,60.2,72c1.1,0,2,0.4,2.7,1.1c5.8,5.7,13.4,8.8,21.5,8.8c8.4,0,16.2-3.3,22.1-9.4c0.3-0.3,0.8-0.5,1.2-0.5
		c8,0,13.2,1.7,15.5,5.1c1.9,2.8,1.9,6.6,1.9,9.7v20.7c0,6.7,4.3,12.3,10.2,14.5V205c0,2.8,2.3,5.1,5.1,5.1c2.8,0,5.1-2.3,5.1-5.1
		v-83.2c5.9-2.1,10.2-7.8,10.2-14.5v-36c3.6,0.7,7.2,0.7,10.7,0V231h-15.6c-2.8,0-5.1,2.3-5.1,5.1c0,2.8,2.3,5.1,5.1,5.1h14.7
		C163.5,247.1,157.8,251.4,151.1,251.4z M176.7,112.9h20.4v77.2h-20.4V112.9z M202.3,92.4c8.5,0,15.3,6.9,15.3,15.3v87.4
		c0,8.5-6.9,15.3-15.3,15.3h-25.6v-10.2h25.6c2.8,0,5.1-2.3,5.1-5.1v-87.4c0-2.8-2.3-5.1-5.1-5.1h-25.6V92.4H202.3z M18,133
		c-2.9,0-5.4-2.3-5.4-5.1V66.5c0-19.7,16.1-35.7,36-35.7c1.5,0,3.1,0.1,4.6,0.3c2.1,0.3,4.1-0.8,5.1-2.6
		c6.4-11.3,18.3-18.4,31.2-18.4c10.1,0,19.8,4.4,26.7,12.1c1.7,1.9,4.4,2.2,6.5,0.9c2.3-1.5,5.1-2.3,7.9-2.3
		c6.5,0,12.3,4.1,14.5,10.3c0.5,1.5,1.7,2.7,3.2,3.2c1.5,0.5,3.1,0.3,4.5-0.6c3.5-2.3,7.7-3.1,12-2.2c5.5,1.2,10.2,5.8,11.5,11.3
		c2.9,12.9-10.3,23.5-23.3,16.9c-1.6-0.8-3.5-0.7-5,0.2c-1.5,0.9-2.4,2.6-2.4,4.4v43.2c0,2.8-2.3,5.1-5.1,5.1s-5.1-2.3-5.1-5.1V86.7
		c0-4,0-10.1-3.7-15.5c-4.3-6.3-12.4-9.5-23.9-9.5c-3.2,0-6.3,1.3-8.6,3.6c-3.9,4-9.1,6.2-14.7,6.2c-5.4,0-10.5-2.1-14.3-5.9
		c-2.6-2.6-6.1-4-9.9-4c-3.9,0-7.5,2.2-9.2,5.7c-4.3,8.8-13,14.3-22.6,14.4c-2.8,0-5.1,2.3-5.1,5.1v40.7C23.2,130.6,20.8,133,18,133
		z"/>
</g>
</svg>
