<?xml version="1.0" encoding="utf-8"?>
<!-- Generator: Adobe Illustrator 22.1.0, SVG Export Plug-In . SVG Version: 6.00 Build 0)  -->
<svg version="1.1" id="Livello_1" xmlns="http://www.w3.org/2000/svg" xmlns:xlink="http://www.w3.org/1999/xlink" x="0px" y="0px"
	 viewBox="0 0 486 290" style="enable-background:new 0 0 486 290;" xml:space="preserve">
<style type="text/css">
	.st0{fill:url(#SVGID_1_);}
	.st1{fill:url(#SVGID_2_);}
	.st2{fill:#BC2A77;}
	.st3{fill:#4A6880;}
	.st4{fill:#6F9CBF;}
	.st5{fill:#94D1FF;}
	.st6{fill:#FEC652;}
	.st7{fill:#FFFFFF;}
	.st8{fill:#263642;}
</style>
<linearGradient id="SVGID_1_" gradientUnits="userSpaceOnUse" x1="339.0218" y1="371.4447" x2="169.2829" y2="77.4482">
	<stop  offset="0" style="stop-color:#263642;stop-opacity:0"/>
	<stop  offset="1" style="stop-color:#263642;stop-opacity:0.5"/>
</linearGradient>
<polygon class="st0" points="12.2,179.5 119.5,286.7 485.8,286.7 485.8,251.6 259.5,25.3 "/>
<linearGradient id="SVGID_2_" gradientUnits="userSpaceOnUse" x1="215.4265" y1="307.8508" x2="198.2367" y2="210.3623">
	<stop  offset="0" style="stop-color:#263642;stop-opacity:0"/>
	<stop  offset="1" style="stop-color:#263642;stop-opacity:0.5"/>
</linearGradient>
<polygon class="st1" points="86.9,230 145.1,288.2 326.8,288.2 249.3,210.8 "/>
<path class="st2" d="M187.4,121.3v9h-17.9v-9c0-4.9,4-9,9-9c2.5,0,4.7,1,6.3,2.6C186.4,116.6,187.4,118.9,187.4,121.3z"/>
<path class="st2" d="M241.2,94.4v-9h9c6.2,0,11.8,2.5,15.9,6.5c4,4.1,6.5,9.7,6.5,15.9c0,12.4-10,22.4-22.4,22.4h-44.8v-17.9
	c0-4.9,4-9,9-9h17.9C237.1,103.4,241.2,99.4,241.2,94.4z"/>
<path class="st3" d="M12.5,130.3c-4.9,0-9,4-9,9v9c0,19.8,16.1,35.9,35.9,35.9h85.2c0-4.9,4-9,9-9h44.8c4.9,0,9-4,9-9v-35.9H12.5z"
	/>
<path class="st2" d="M21.5,85.9c-4.4,0.9-8.3,3.1-11.4,6.1c-4,4.1-6.5,9.7-6.5,15.9c0,12.4,10,22.4,22.4,22.4h125.5V85.5L21.5,85.9z
	"/>
<path class="st3" d="M263.6,130.3h-58.3v53.8h31.4c19.8,0,35.9-16.1,35.9-35.9v-9C272.6,134.3,268.5,130.3,263.6,130.3z"/>
<path class="st4" d="M66.3,130.3h44.8c0,12.4-10,22.4-22.4,22.4S66.3,142.7,66.3,130.3z"/>
<path class="st3" d="M88.7,85.5c0,6.5,1.9,12.5,5.3,17.4c5.6,8.4,15.2,13.9,26.1,13.9c17.4,0,31.4-14,31.4-31.4H88.7z"/>
<path class="st4" d="M254.6,130.3c0,12.4-10,22.4-22.4,22.4s-22.4-10-22.4-22.4H254.6z"/>
<path class="st4" d="M151.5,139.3c0,1.3,0.3,2.4,0.7,3.5c-4,6-10.9,10-18.7,10c-12.4,0-22.4-10-22.4-22.4h40.4V139.3z"/>
<path class="st4" d="M26,130.3h40.4c0,12.4-10,22.4-22.4,22.4s-22.4-10-22.4-22.4H26z"/>
<path class="st5" d="M106.7,85.5h26.9c0,7.4-6,13.5-13.5,13.5C112.7,98.9,106.7,92.9,106.7,85.5z"/>
<path class="st6" d="M26,85.5h62.8c0,6.5,1.9,12.5,5.3,17.4l-0.8,0.5h-8.4c-3.1,0-5.9,1.7-7.3,4.5c-1.4,2.7-4.2,4.5-7.3,4.5h-7.1
	c-3.5,0-6.6-2.2-7.7-5.6l-0.8-2.3c-1.1-3.3-4.2-5.6-7.7-5.6h-1.2c-1.3,0-2.5,0.3-3.6,0.9l-5.6,2.8c-1.1,0.5-2.4,0.9-3.6,0.9h-3.4
	c-4.5,0-8.1-3.6-8.1-8.1v-9.4C22.9,85.6,24.4,85.5,26,85.5z"/>
<path class="st6" d="M247.5,213.7c1.7,1.6,2.6,3.9,2.6,6.3c0,4.9-4,9-9,9h-148c-2.5,0-4.7-1-6.3-2.6c-1.7-1.6-2.6-3.9-2.6-6.3
	c0-4.9,4-9,9-9h85.2c2.5,0,4.7-1,6.3-2.6c1.7-1.6,2.6-3.9,2.6-6.3c0-4.9-4-9-9-9h-44.8c-2.5,0-4.7-1-6.3-2.6
	c-1.7-1.6-2.6-3.9-2.6-6.3c0-4.9,4-9,9-9h44.8c4.9,0,9-4,9-9v-44.8c0-2.5-1-4.7-2.6-6.3c-1.6-1.7-3.9-2.6-6.3-2.6c-4.9,0-9,4-9,9
	v17.9c0,2.5-1,4.7-2.6,6.3c-1.6,1.7-3.9,2.6-6.3,2.6c-3.7,0-6.9-2.3-8.2-5.5c-0.4-1.1-0.7-2.2-0.7-3.5V85.5h89.7v9c0,4.9-4,9-9,9
	h-17.9c-4.9,0-9,4-9,9V202c0,4.9,4,9,9,9h26.9C243.6,211,245.9,212,247.5,213.7z"/>
<path class="st3" d="M227.1,14.3L57.3,13.7c-29.7,0-53.8,24.1-53.8,53.8v9c0,4.9,4,9,9,9h251.1c4.9,0,9-4,9-9v-9
	C272.6,40.6,252.9,18.4,227.1,14.3z"/>
<path class="st7" d="M227.1,14.3l-41.4,41.4c-1.8,1.8-4.2,2.8-6.7,2.8c-2.6,0-5-1.1-6.7-2.8c-1.7-1.7-2.8-4.1-2.8-6.7
	c0-2.5,1-4.9,2.8-6.7l28.6-28.6h17.9C221.6,13.7,224.4,13.9,227.1,14.3z"/>
<path class="st7" d="M169.4,13.7l-42.1,42.1c-1.8,1.8-4.2,2.8-6.7,2.8c-2.6,0-5-1.1-6.7-2.8c-1.7-1.7-2.8-4.1-2.8-6.7
	c0-2.5,1-4.9,2.8-6.7l28.6-28.6H169.4z"/>
<path class="st7" d="M111.1,13.7L69.1,55.8c-1.8,1.8-4.2,2.8-6.7,2.8c-2.6,0-5-1.1-6.7-2.8c-1.7-1.7-2.8-4.1-2.8-6.7
	c0-2.5,1-4.9,2.8-6.7l28.6-28.6H111.1z"/>
<path class="st8" d="M178.4,206.5h-49.3v9h49.3c7.4,0,13.5-6,13.5-13.5c0-7.4-6-13.5-13.5-13.5h-13.5v9h13.5c2.5,0,4.5,2,4.5,4.5
	C182.9,204.5,180.9,206.5,178.4,206.5z"/>
<path class="st8" d="M277,76.5v-9c0-32.1-26.1-58.3-58.3-58.3H57.3C25.2,9.2-1,35.4-1,67.5v9c0,5.5,3.3,10.2,8,12.3
	c-4.9,4.9-8,11.6-8,19.1s3.1,14.2,8,19.1c-4.7,2.1-8,6.8-8,12.3v9c0,22.3,18.1,40.4,40.4,40.4h81.5c1.9,5.2,6.8,9,12.6,9H156v-9
	h-22.4c-2.5,0-4.5-2-4.5-4.5s2-4.5,4.5-4.5h44.8c7.4,0,13.5-6,13.5-13.5v-44.8c0-7.4-6-13.5-13.5-13.5s-13.5,6-13.5,13.5v17.9
	c0,2.5-2,4.5-4.5,4.5c-2.5,0-4.5-2-4.5-4.5V89.9h80.7v4.5c0,2.5-2,4.5-4.5,4.5h-17.9c-7.4,0-13.5,6-13.5,13.5V202
	c0,7.4,6,13.5,13.5,13.5h26.9c2.5,0,4.5,2,4.5,4.5c0,2.5-2,4.5-4.5,4.5h-148c-2.5,0-4.5-2-4.5-4.5c0-2.5,2-4.5,4.5-4.5h26.9v-9H93.2
	c-7.4,0-13.5,6-13.5,13.5c0,7.4,6,13.5,13.5,13.5h148c7.4,0,13.5-6,13.5-13.5c0-7.4-6-13.5-13.5-13.5h-26.9c-2.5,0-4.5-2-4.5-4.5
	v-13.5h26.9c22.2,0,40.4-18.1,40.4-40.4v-9c0-5.5-3.3-10.2-8-12.3c4.9-4.9,8-11.6,8-19.1s-3.1-14.2-8-19.1
	C273.8,86.7,277,82,277,76.5z M216.9,18.2l-34.4,34.4c-1,1-2.2,1.5-3.6,1.5c-2.8,0-5-2.3-5-5c0-1.3,0.5-2.6,1.5-3.6l27.3-27.3H216.9
	z M158.6,18.2l-34.4,34.4c-1,1-2.2,1.5-3.6,1.5c-2.8,0-5-2.3-5-5c0-1.3,0.5-2.6,1.5-3.6l27.3-27.3H158.6z M100.3,18.2L65.9,52.6
	c-1,1-2.2,1.5-3.6,1.5c-2.8,0-5-2.3-5-5c0-1.3,0.5-2.6,1.5-3.6l27.3-27.3H100.3z M102.8,89.9c2,7.7,9,13.5,17.3,13.5
	c8.3,0,15.3-5.7,17.3-13.5h9.2c-2.1,12.7-13.2,22.4-26.5,22.4s-24.4-9.7-26.5-22.4H102.8z M112.4,89.9h15.4
	c-1.6,2.7-4.4,4.5-7.7,4.5C116.8,94.4,113.9,92.6,112.4,89.9z M147.3,141.8c-3.4,4-8.4,6.4-13.7,6.4c-8.3,0-15.3-5.7-17.3-13.5H147
	v4.5C147,140.1,147.1,141,147.3,141.8z M147,125.8H26c-9.9,0-17.9-8-17.9-17.9c0-6.6,3.6-12.3,9-15.4v2.8c0,6.9,5.6,12.6,12.6,12.6
	H33c1.9,0,3.9-0.5,5.6-1.3l5.6-2.8c0.5-0.3,1.1-0.4,1.6-0.4H47c1.6,0,2.9,1,3.4,2.5l0.8,2.3c1.7,5.2,6.5,8.6,11.9,8.6h7.1
	c4.8,0,9.1-2.7,11.3-7c0.6-1.2,1.9-2,3.2-2h7.4c6.6,8.2,16.7,13.5,28,13.5c10.7,0,20.3-4.7,26.9-12.2V125.8z M106,134.8
	c-2,7.7-9,13.5-17.3,13.5s-15.3-5.7-17.3-13.5H106z M61.2,134.8c-2,7.7-9,13.5-17.3,13.5s-15.3-5.7-17.3-13.5H61.2z M84.5,89.9
	c0.4,3.1,1.2,6.1,2.3,9h-2.1c-4.8,0-9.1,2.7-11.3,7c-0.6,1.2-1.9,2-3.2,2h-7.1c-1.6,0-2.9-1-3.4-2.5L59,103
	c-1.7-5.2-6.5-8.6-11.9-8.6h-1.2c-1.9,0-3.9,0.5-5.6,1.3l-5.6,2.8c-0.5,0.3-1.1,0.4-1.6,0.4h-3.4c-2,0-3.6-1.6-3.6-3.6v-5.3H84.5z
	 M178.4,116.8c2.5,0,4.5,2,4.5,4.5v4.5h-9v-4.5C173.9,118.9,175.9,116.8,178.4,116.8z M160.5,152.7c7.4,0,13.5-6,13.5-13.5v-4.5h9
	v31.4c0,2.5-2,4.5-4.5,4.5h-44.8c-5.8,0-10.8,3.8-12.6,9H39.4C22.1,179.6,8,165.5,8,148.2v-9c0-2.5,2-4.5,4.5-4.5h4.9
	c2.1,12.7,13.2,22.4,26.5,22.4c9.4,0,17.6-4.8,22.4-12.1c4.8,7.3,13.1,12.1,22.4,12.1s17.6-4.8,22.4-12.1
	c4.8,7.3,13.1,12.1,22.4,12.1c7,0,13.6-2.7,18.6-7.5C154.4,151.6,157.3,152.7,160.5,152.7z M214.3,107.9h17.9
	c7.4,0,13.5-6,13.5-13.5v-4.5h4.5c9.9,0,17.9,8,17.9,17.9s-8,17.9-17.9,17.9h-40.4v-13.5C209.8,109.9,211.8,107.9,214.3,107.9z
	 M249.5,134.8c-2,7.7-9,13.5-17.3,13.5s-15.3-5.7-17.3-13.5H249.5z M268.1,148.2c0,17.3-14.1,31.4-31.4,31.4h-26.9v-34.5
	c4.8,7.3,13.1,12.1,22.4,12.1c13.3,0,24.4-9.7,26.5-22.4h4.9c2.5,0,4.5,2,4.5,4.5V148.2z M12.5,81C10,81,8,79,8,76.5v-9
	c0-27.2,22.1-49.3,49.3-49.3h16.1L52.5,39.2c-2.6,2.6-4.1,6.2-4.1,9.9c0,7.7,6.3,14,14,14c3.7,0,7.3-1.5,9.9-4.1L113,18.2h18.7
	l-20.9,20.9c-2.6,2.6-4.1,6.2-4.1,9.9c0,7.7,6.3,14,14,14c3.7,0,7.3-1.5,9.9-4.1l40.7-40.7H190L169,39.2c-2.6,2.6-4.1,6.2-4.1,9.9
	c0,7.7,6.3,14,14,14c3.7,0,7.3-1.5,9.9-4.1l39.7-39.7c22.5,4.6,39.5,24.5,39.5,48.3v9c0,2.5-2,4.5-4.5,4.5H12.5z"/>
</svg>
