<?xml version="1.0" encoding="utf-8"?>
<!-- Generator: Adobe Illustrator 22.1.0, SVG Export Plug-In . SVG Version: 6.00 Build 0)  -->
<svg version="1.1" id="Livello_1" xmlns="http://www.w3.org/2000/svg" xmlns:xlink="http://www.w3.org/1999/xlink" x="0px" y="0px"
	 viewBox="0 0 54 48" style="enable-background:new 0 0 54 48;" xml:space="preserve">
<style type="text/css">
	.st0{fill:#263642;}
	.st1{enable-background:new    ;}
	.st2{fill:#FFFFFF;}
</style>
<path class="st0" d="M52,7.9c-0.4-6.3-7.4-10-13.1-7.1L5,18.1c-6.8,3.5-6.2,13,1,15.7L41.9,47c6.1,2.2,12.5-2.3,12.1-8.6L52,7.9z"/>
<g class="st1">
	<path class="st2" d="M30.4,31.6v-4.5c0-0.9-0.7-1.6-1.6-1.6h-4.4c-0.9,0-1.6-0.7-1.6-1.6v0c0-0.9,0.7-1.6,1.6-1.6h4.4
		c0.9,0,1.6-0.7,1.6-1.6v-4.4c0-0.9,0.7-1.6,1.6-1.6h0c0.9,0,1.6,0.7,1.6,1.6v4.4c0,0.9,0.7,1.6,1.6,1.6h4.4c0.9,0,1.6,0.7,1.6,1.6
		v0c0,0.9-0.7,1.6-1.6,1.6h-4.4c-0.9,0-1.6,0.7-1.6,1.6v4.5c0,0.9-0.7,1.6-1.6,1.6h0C31.1,33.2,30.4,32.5,30.4,31.6z"/>
</g>
</svg>
