<?xml version="1.0" encoding="utf-8"?>
<!-- Generator: Adobe Illustrator 22.1.0, SVG Export Plug-In . SVG Version: 6.00 Build 0)  -->
<svg version="1.1" id="Livello_1" xmlns="http://www.w3.org/2000/svg" xmlns:xlink="http://www.w3.org/1999/xlink" x="0px" y="0px"
	 viewBox="0 0 261 312" style="enable-background:new 0 0 261 312;" xml:space="preserve">
<path d="M246.3,0.4c-8,0-14.7,6.5-15,14.5c-0.1,2.7,0.5,5.2,1.7,7.5L197,58.2H81.4c-2.4,0-4.6,1.8-4.8,4.2c-0.3,2.7,1.9,5.1,4.6,5.1
	h106.6l-19.7,19.7H31.8L14.9,67.4l44.7,0c2.4,0,4.6-1.8,4.8-4.2c0.3-2.7-1.9-5.1-4.6-5.1L5,58.2c-1.4,0-2.8,0.5-3.7,1.6
	c-1.5,1.8-1.4,4.3,0,6l105.8,122.8v21.8c0,2.4,1.8,4.6,4.2,4.8c2.7,0.3,5.1-1.9,5.1-4.6v-19.1H128v80c0,6.4,3.6,12.2,9.3,15.1
	l31.9,16.1h-94l31.9-16.1c5.7-2.9,9.3-8.7,9.3-15.1v-39.3c0-2.4-1.8-4.6-4.2-4.8c-2.7-0.3-5.1,1.9-5.1,4.6v39.5
	c0,2.9-1.6,5.5-4.2,6.9l-49.2,24.9c-2.2,1.1-3.2,3.8-2.1,6.2c0.8,1.6,2.5,2.6,4.3,2.6h132.4c1.8,0,3.5-1,4.3-2.6
	c1.1-2.3,0.2-5-2.1-6.2l-49.2-24.9c-2.6-1.3-4.2-4-4.2-6.9v-82.9l38.1-44.2c1.7-1.9,1.4-4.8-0.5-6.5c-1.9-1.7-4.8-1.4-6.5,0.5
	l-37.8,43.9h-16.7l-74.1-86h119.2l-12,12c-5.5-4.2-12-6.5-18.4-6.5c-6.3,0-12.2,2.3-16.3,6.5c-8.8,8.8-8.5,23.6,0,34.7l-11.7,11.7
	c-1.5,1.5-1.9,3.9-0.9,5.7c1.5,2.6,5.2,3,7.3,1l11.9-11.9c5.5,4.2,12,6.5,18.4,6.5c6.3,0,12.1-2.3,16.3-6.5c8.8-8.8,8.5-23.6,0-34.7
	L172,96.3h32.6l-22,25.6c-1.5,1.8-1.5,4.4,0.1,6.1c1.8,2,5.1,1.9,6.9-0.1L243,65.8c1.4-1.7,1.5-4.2,0-6c-0.9-1.1-2.3-1.6-3.7-1.6
	l-29.3,0l29.3-29.3c2.2,1.1,4.7,1.8,7.4,1.7c8-0.3,14.5-7,14.5-15C261.3,7.2,254.6,0.4,246.3,0.4z M146.9,143.1
	c-3.1,3.1-7.1,3.8-9.8,3.8c-5.4,0-11-2.5-15.3-6.8c0,0,0,0,0,0c0,0,0,0,0,0c-7.8-7.8-9.1-19.1-3-25.2c3.1-3.1,7.1-3.8,9.8-3.8
	c5.4,0,11,2.5,15.4,6.8C151.7,125.6,153,137,146.9,143.1z M229.5,67.4l-16.9,19.7h-31.3l19.7-19.7H229.5z M247.6,21.2
	c-4.3,1-8-2.8-7-7c0.5-2.1,2.2-3.9,4.3-4.4c4.2-1,8,2.8,7,7C251.5,19,249.7,20.7,247.6,21.2z"/>
</svg>
