<?xml version="1.0" encoding="utf-8"?>
<!-- Generator: Adobe Illustrator 22.1.0, SVG Export Plug-In . SVG Version: 6.00 Build 0)  -->
<svg version="1.1" id="Livello_1" xmlns="http://www.w3.org/2000/svg" xmlns:xlink="http://www.w3.org/1999/xlink" x="0px" y="0px"
	 viewBox="0 0 500 294" style="enable-background:new 0 0 500 294;" xml:space="preserve">
<style type="text/css">
	.st0{fill:url(#SVGID_1_);}
	.st1{fill:url(#SVGID_2_);}
	.st2{fill:#FFFFFF;}
	.st3{fill:#4A6880;}
	.st4{fill:#BC2A77;}
	.st5{fill:#FEC652;}
	.st6{fill:#FD8F31;}
	.st7{fill:#263642;}
</style>
<g>
	<linearGradient id="SVGID_1_" gradientUnits="userSpaceOnUse" x1="276.9034" y1="361.0347" x2="162.8058" y2="163.4119">
		<stop  offset="0" style="stop-color:#263642;stop-opacity:0"/>
		<stop  offset="1" style="stop-color:#263642;stop-opacity:0.5"/>
	</linearGradient>
	<polygon class="st0" points="46.7,230.5 110.2,294 393,294 301.1,202 	"/>
	<linearGradient id="SVGID_2_" gradientUnits="userSpaceOnUse" x1="343.6634" y1="384.0937" x2="192.9429" y2="123.0382">
		<stop  offset="0" style="stop-color:#263642;stop-opacity:0"/>
		<stop  offset="1" style="stop-color:#263642;stop-opacity:0.5"/>
	</linearGradient>
	<polygon class="st1" points="46.7,230.5 110.1,293.9 499.9,293.9 279.2,73.2 	"/>
	<g>
		<path class="st2" d="M37.3,91.3h28.2v17.2H37.3c-8.5,0-15.4,6.9-15.4,15.4v15.3c0,8.5,6.9,15.4,15.4,15.4h28.2v17.2H37.3
			c-18,0-32.7-14.6-32.7-32.7v-15.3C4.7,105.9,19.3,91.3,37.3,91.3z"/>
		<path class="st3" d="M64.6,81.4v97.2c0,6.5,1.7,12.7,4.8,18c6.3,11,18.1,18.4,31.7,18.4h142c13.6,0,25.4-7.4,31.7-18.4
			c3-5.3,4.8-11.4,4.8-18V81.4c0-3.8-3.1-6.9-6.9-6.9H71.5C67.7,74.6,64.6,77.6,64.6,81.4z"/>
		<path class="st4" d="M69.3,191.6c6.3,11,18.1,18.4,31.7,18.4h142c13.6,0,25.4-7.4,31.7-18.4H69.3z"/>
		<path class="st5" d="M297.3,181.1c0,5.6-0.9,10.8-2.6,15.5c-4.1,11.4-12.6,19.2-22.5,19.2c-4,0-7.8-1.3-11.2-3.7
			c-8.2-5.7-13.9-17.5-13.9-31.1c0-6.3,1.2-12.3,3.4-17.4c4.4-10.4,12.5-17.3,21.8-17.3c12.6,0,23.1,12.9,24.9,29.8
			C297.2,177.8,297.3,179.4,297.3,181.1z"/>
		<path class="st6" d="M294.6,196.6c-4.1,11.4-12.6,19.2-22.5,19.2c-4,0-7.8-1.3-11.2-3.7c-8.2-5.7-13.9-17.5-13.9-31.1
			c0-6.3,1.2-12.3,3.4-17.4c8.9,9.7,13.4,22.1,11.9,32.9H294.6z"/>
		<path class="st5" d="M207.6,196.6c1,1.2,2,2.3,3.1,3.4c12.6,12.6,30.2,15.5,39.4,6.3c2.7-2.7,4.3-6,5-9.8
			c1.7-9.2-2.3-20.6-11.3-29.6c-12.6-12.6-30.2-15.5-39.4-6.3C196.1,169,197.7,184.4,207.6,196.6z"/>
		<path class="st6" d="M207.6,196.6c1,1.2,2,2.3,3.1,3.4c12.6,12.6,30.2,15.5,39.4,6.3c2.7-2.7,4.3-6,5-9.8H207.6z"/>
		<path class="st2" d="M58.1,232.8H286c7.6,0,13.8-6.2,13.8-13.8v-11.1c0-2.3-1.9-4.1-4.1-4.1H48.4c-2.3,0-4.1,1.9-4.1,4.1V219
			C44.3,226.6,50.5,232.8,58.1,232.8z"/>
		<path class="st7" d="M298.2,199.7c2.3-5.7,3.5-12,3.5-18.6c0-10.2-2.9-19.9-8.2-27.2c-2.8-3.8-6-6.8-9.6-8.8V81.4
			c0-6.3-5.1-11.3-11.3-11.3h-35.3c-2.5,0-4.5,2-4.5,4.5c0,2.5,2,4.5,4.5,4.5h35.3c1.3,0,2.4,1.1,2.4,2.4v60.6
			c-0.9-0.1-1.9-0.2-2.9-0.2c-11.3,0-21.3,8.2-26.3,21c-6.6-6.2-14.5-10.3-22.4-11.6c-8.9-1.4-16.8,0.8-22.2,6.2
			c-5.5,5.4-7.7,13.3-6.2,22.2c1.1,6.8,4.3,13.6,9,19.5H76.6c-4.9-5.8-7.6-13.1-7.6-20.7v-38c0-2.5-2-4.5-4.5-4.5
			c-2.5,0-4.5,2-4.5,4.5v9.5H37.3c-6,0-11-4.9-11-11v-15.3c0-6,4.9-11,11-11h22.8v7.2c0,2.5,2,4.5,4.5,4.5c2.5,0,4.5-2,4.5-4.5V81.4
			c0-1.3,1.1-2.4,2.4-2.4h145.3c2.5,0,4.5-2,4.5-4.5c0-2.5-2-4.5-4.5-4.5H71.5c-6.3,0-11.3,5.1-11.3,11.3v5.4H37.3
			c-20.5,0-37.1,16.6-37.1,37.1v15.3c0,20.5,16.6,37.1,37.1,37.1h22.8v2.3c0,7.3,2,14.4,5.6,20.7H48.4c-4.7,0-8.6,3.9-8.6,8.6V219
			c0,10.1,8.2,18.2,18.2,18.2h88.6c2.5,0,4.5-2,4.5-4.5c0-2.5-2-4.5-4.5-4.5H58.1c-5.1,0-9.3-4.2-9.3-9.3v-10.8h246.6V219
			c0,5.1-4.2,9.3-9.3,9.3H167.2c-2.5,0-4.5,2-4.5,4.5c0,2.5,2,4.5,4.5,4.5H286c10.1,0,18.2-8.2,18.2-18.2v-11.1
			C304.2,204.1,301.7,200.8,298.2,199.7z M37.3,167.4c-15.5,0-28.2-12.7-28.2-28.2v-15.3c0-15.5,12.6-28.2,28.2-28.2h22.8v8.3H37.3
			c-11,0-19.9,8.9-19.9,19.9v15.3c0,11,8.9,19.9,19.9,19.9h22.8v8.3H37.3z M292.8,181.1c0,6.6-1.5,12.9-4.2,18.2h-12v-47.8
			C285.9,154.5,292.8,166.7,292.8,181.1z M267.7,151.6v47.8H259c2.2-8.7-0.1-19.2-6.3-28.4C255.1,161.1,260.9,153.8,267.7,151.6z
			 M240.6,170.2c8.9,8.9,12.6,21.1,9,29.1h-0.4l-38-38C219.2,157.7,231.5,161.1,240.6,170.2z M213.9,196.9c-5.4-5.4-9-12-10.1-18.6
			c-0.7-4.1-0.2-7.8,1.2-10.8l31.7,31.7h-20.2C215.6,198.6,214.7,197.8,213.9,196.9z"/>
		<path class="st7" d="M137.9,58.8c1.1,0,2.3-0.4,3.1-1.3c1.7-1.7,1.7-4.6,0-6.3c-0.8-0.8-1.3-1.9-1.3-3.1s0.5-2.3,1.3-3.1
			l23.9-23.9c5.2-5.2,5.2-13.6,0-18.8c-1.7-1.7-4.6-1.7-6.3,0c-1.7,1.7-1.7,4.6,0,6.3c1.7,1.7,1.7,4.5,0,6.2l-23.9,23.9
			c-5.2,5.2-5.2,13.6,0,18.8C135.6,58.4,136.7,58.8,137.9,58.8z"/>
		<path class="st7" d="M190,11.7c0,1.2-0.5,2.3-1.3,3.1l-23.9,23.9c-5.2,5.2-5.2,13.6,0,18.8c0.9,0.9,2,1.3,3.1,1.3
			c1.1,0,2.3-0.4,3.1-1.3c1.7-1.7,1.7-4.6,0-6.3c-1.7-1.7-1.7-4.5,0-6.2L195,21.1c2.5-2.5,3.9-5.8,3.9-9.4c0-3.5-1.4-6.9-3.9-9.4
			c-1.7-1.7-4.6-1.7-6.3,0c-1.7,1.7-1.7,4.6,0,6.3C189.5,9.5,190,10.6,190,11.7z"/>
		<path class="st7" d="M218.7,14.8l-23.9,23.9c-5.2,5.2-5.2,13.6,0,18.8c0.9,0.9,2,1.3,3.1,1.3c1.1,0,2.3-0.4,3.1-1.3
			c1.7-1.7,1.7-4.6,0-6.3c-1.7-1.7-1.7-4.5,0-6.2L225,21.1c5.2-5.2,5.2-13.6,0-18.8c-1.7-1.7-4.6-1.7-6.3,0c-1.7,1.7-1.7,4.6,0,6.3
			C220.5,10.3,220.5,13.1,218.7,14.8z"/>
	</g>
</g>
</svg>
