<?xml version="1.0" encoding="utf-8"?>
<!-- Generator: Adobe Illustrator 22.1.0, SVG Export Plug-In . SVG Version: 6.00 Build 0)  -->
<svg version="1.1" id="Livello_1" xmlns="http://www.w3.org/2000/svg" xmlns:xlink="http://www.w3.org/1999/xlink" x="0px" y="0px"
	 viewBox="0 0 29 33" style="enable-background:new 0 0 29 33; fill:#ffffff;" xml:space="preserve">
<g>
	<g>
		<path d="M27.9,30.8c-0.3,0.8-1.1,1.2-1.9,0.9L4.8,24c-2.7-1-4.4-3.3-4.6-6.1c-0.2-2.7,1.3-5.2,3.8-6.5L24,1.2
			c0.7-0.4,1.6-0.1,2,0.7l0,0c0.4,0.7,0.1,1.6-0.7,2L5.4,14c-1.4,0.7-2.3,2.1-2.2,3.7c0.1,1.6,1.1,2.9,2.6,3.4L27,28.9
			C27.8,29.2,28.2,30.1,27.9,30.8L27.9,30.8z"/>
	</g>
</g>
</svg>
