<?xml version="1.0" encoding="utf-8"?>
<!-- Generator: Adobe Illustrator 22.1.0, SVG Export Plug-In . SVG Version: 6.00 Build 0)  -->
<svg version="1.1" id="Livello_1" xmlns="http://www.w3.org/2000/svg" xmlns:xlink="http://www.w3.org/1999/xlink" x="0px" y="0px"
	 viewBox="0 0 29 33" style="enable-background:new 0 0 29 33; fill:#ffffff;" xml:space="preserve">
<g>
	<g>
		<path d="M0.1,30.8c0.3,0.8,1.1,1.2,1.9,0.9L23.2,24c2.7-1,4.4-3.3,4.6-6.1c0.2-2.7-1.3-5.2-3.8-6.5L4,1.2C3.3,0.8,2.4,1.1,2,1.8
			l0,0c-0.4,0.7-0.1,1.6,0.7,2L22.6,14c1.4,0.7,2.3,2.1,2.2,3.7c-0.1,1.6-1.1,2.9-2.6,3.4L1,28.9C0.2,29.2-0.2,30.1,0.1,30.8
			L0.1,30.8z"/>
	</g>
</g>
</svg>
