<?xml version="1.0" encoding="utf-8"?>
<!-- Generator: Adobe Illustrator 22.1.0, SVG Export Plug-In . SVG Version: 6.00 Build 0)  -->
<svg version="1.1" id="Livello_1" xmlns="http://www.w3.org/2000/svg" xmlns:xlink="http://www.w3.org/1999/xlink" x="0px" y="0px"
	 viewBox="0 0 486 290" style="enable-background:new 0 0 486 290;" xml:space="preserve">
<style type="text/css">
	.st0{fill:url(#SVGID_1_);}
	.st1{fill:#4A6880;}
	.st2{fill:#601438;}
	.st3{fill:#FEC652;}
	.st4{fill:#FD8F31;}
	.st5{fill:#BC2A77;}
	.st6{fill:#D1DDE6;}
	.st7{fill:#263642;}
</style>
<linearGradient id="SVGID_1_" gradientUnits="userSpaceOnUse" x1="363.0417" y1="356.9486" x2="200.0518" y2="74.6418">
	<stop  offset="0" style="stop-color:#263642;stop-opacity:0"/>
	<stop  offset="1" style="stop-color:#263642;stop-opacity:0.5"/>
</linearGradient>
<polygon class="st0" points="131.5,243.1 178.3,290 479,290 479,270.5 252.7,44.2 "/>
<g>
	<path class="st1" d="M87.6,43.4C50.6,55.6,26,77.5,26,77.5l99.3,158.8c2.7,4.3,9,4.3,11.7,0l99.3-158.8c0,0-24.6-21.8-61.7-34.1
		C146.4,34.1,115.8,34.1,87.6,43.4z"/>
	<path class="st2" d="M236.2,77.5L137,236.3c-2.7,4.3-9,4.3-11.7,0l-1.9-3L225.8,69.4C232.5,74.2,236.2,77.5,236.2,77.5z"/>
	<path class="st3" d="M250.2,46.4c-12.8-9.2-35.9-23.8-65.3-33.5C150,1.3,112.2,1.3,77.3,12.8C47.9,22.6,24.8,37.2,12,46.4
		c-6.4,4.6-8.1,13.4-3.9,20l6.1,9.8c4.6,7.3,14.4,9.2,21.4,4.2c13.3-9.5,32.7-21.7,52.6-28.3c19.9-6.6,41-8.4,61.6-5.5
		c3.1,0.4,5.3,3.5,4.6,6.6l-3,15.2c-1.2,5.8,2.6,11.4,8.4,12.6c5.8,1.2,11.4-2.6,12.6-8.4l2.6-13c0.7-3.4,4.3-5.4,7.5-4.1
		c0,0,0.1,0,0.1,0c2.4,1,3.8,3.6,3.3,6.2l-4.8,24c-1.3,6.6,3,13.3,9.7,14.5c6.5,1.2,12.7-3.1,14-9.5l2.8-13.8
		c0.8-3.8,5.1-5.7,8.4-3.6c3.9,2.5,7.5,4.9,10.7,7.2c7,5,16.7,3,21.3-4.3l6.2-9.9C258.3,59.7,256.6,51,250.2,46.4z"/>
	<path class="st4" d="M254.1,66.4l-6.2,9.9c-4.5,7.3-14.3,9.2-21.3,4.3c-1.8-1.2-3.6-2.5-5.6-3.8c5.3-0.5,10.4-3.4,13.5-8.3
		l7.4-11.9c2.8-4.5,3.4-9.8,2-14.6c2.3,1.5,4.4,3,6.3,4.4C256.6,51,258.3,59.7,254.1,66.4z"/>
	<path class="st5" d="M121.5,133.7c0,6.5-5.3,11.8-11.8,11.8c-6.5,0-11.8-5.3-11.8-11.8c0-6.5,5.3-11.8,11.8-11.8
		C116.2,121.9,121.5,127.2,121.5,133.7z"/>
	<path class="st2" d="M121.5,133.7c0,6.5-5.3,11.8-11.8,11.8c-2.8,0-5.4-1-7.5-2.7c6.3-0.3,11.3-5.4,11.3-11.8c0-3.7-1.7-7-4.3-9.1
		c0.2,0,0.3,0,0.5,0C116.2,121.9,121.5,127.2,121.5,133.7z"/>
	<path class="st5" d="M80.7,88.7c0,6.5-5.3,11.8-11.8,11.8s-11.8-5.3-11.8-11.8c0-6.5,5.3-11.8,11.8-11.8S80.7,82.2,80.7,88.7z"/>
	<path class="st2" d="M80.7,88.7c0,6.5-5.3,11.8-11.8,11.8c-2.8,0-5.4-1-7.5-2.7c6.3-0.3,11.3-5.4,11.3-11.8c0-3.7-1.7-6.9-4.3-9.1
		c0.2,0,0.3,0,0.5,0C75.4,77,80.7,82.2,80.7,88.7z"/>
	<path class="st5" d="M189.7,126.2c0,6.5-5.3,11.8-11.8,11.8c-6.5,0-11.8-5.3-11.8-11.8c0-6.5,5.3-11.8,11.8-11.8
		C184.4,114.4,189.7,119.7,189.7,126.2z"/>
	<path class="st2" d="M189.7,126.2c0,6.5-5.3,11.8-11.8,11.8c-2.8,0-5.4-1-7.5-2.7c6.3-0.3,11.3-5.4,11.3-11.8c0-3.7-1.7-7-4.3-9.1
		c0.2,0,0.3,0,0.5,0C184.4,114.4,189.7,119.7,189.7,126.2z"/>
	<path class="st3" d="M152.5,180c-0.2-1.9-0.9-3.8-1.9-5.5c-2.9-5-8.5-9.1-14.2-10.4c-1.9-0.4-3.9-0.5-5.8-0.2
		c-3.5,0.7-7.7,2.9-9.3,6.3c-1.8,3.8-0.6,7.4,2.4,10.3c0,0,0.1,0.1,0.1,0.1l1.4,1c1.2,0.8,1.4,2.5,0.6,3.6l-2.1,2.9
		c-0.8,1.1-0.6,2.6,0.5,3.4l4,2.9c1.1,0.8,2.6,0.6,3.4-0.5l2.1-2.9c0.8-1.2,2.5-1.4,3.6-0.6l1.4,1c0.1,0,0.1,0.1,0.2,0.1
		c3.7,1.9,7.4,2.1,10.5-0.8C152,188.2,152.9,183.6,152.5,180z"/>
	<path class="st6" d="M149.3,190.8c-3.1,2.9-6.9,2.8-10.5,0.8c-0.1,0-0.1-0.1-0.2-0.1l-1.4-1c-1.2-0.8-2.8-0.6-3.6,0.6l-2.1,2.9
		c-0.4,0.5-1,0.9-1.6,1c-0.6,0.1-1.3,0-1.8-0.4l-2.2-1.6c0.2-0.1,0.3-0.2,0.5-0.4c0,0,3.9-5.3,3.9-5.4c1.3-1.8,3.8-2.3,5.8-1.8
		c1.1,0.2,2.1,0.6,3.1,1c2.1,1,4.4,1.1,6.6,0.6c4.1-1,5.9-4.3,6.5-7.9c0.1,0.4,0.1,0.8,0.2,1.1C152.9,183.6,152,188.2,149.3,190.8z"
		/>
	<path class="st3" d="M121.8,67.7c-2.3-0.2-4.7,0.2-6.9,1c-6.5,2.2-12.7,7.9-15.5,14.2c-0.9,2.1-1.5,4.4-1.5,6.8
		c0,4.3,1.6,9.7,5.2,12.4c4.1,3,8.5,2.4,12.6-0.4c0.1,0,0.1-0.1,0.2-0.1l1.5-1.4c1.3-1.2,3.2-1.1,4.4,0.2l2.9,3.1
		c1.1,1.2,2.9,1.3,4.1,0.2l4.3-4c1.2-1.1,1.3-2.9,0.2-4.1l-2.9-3.1c-1.2-1.3-1.1-3.2,0.2-4.4l1.5-1.4c0.1-0.1,0.1-0.1,0.2-0.2
		c3.1-3.9,4.1-8.2,1.5-12.6C131.4,70.1,126.1,68,121.8,67.7z"/>
	<path class="st6" d="M133.7,73.9c2.7,4.3,1.7,8.7-1.5,12.6c0,0.1-0.1,0.1-0.2,0.2l-1.5,1.4c-1.3,1.2-1.3,3.1-0.2,4.4l2.9,3.1
		c0.5,0.6,0.8,1.3,0.8,2.1c0,0.7-0.3,1.5-0.9,2l-2.4,2.2c-0.1-0.2-0.2-0.5-0.4-0.6c0,0-5.4-5.8-5.4-5.9c-1.8-1.9-1.8-4.9-0.8-7.2
		c0.5-1.2,1.2-2.3,1.9-3.3c1.7-2.2,2.3-4.9,2.2-7.6c-0.3-5-3.7-8-7.8-9.5c0.5,0,0.9,0,1.4,0C126.1,68,131.4,70.1,133.7,73.9z"/>
	<path class="st7" d="M252.4,43.3c-8.7-6.3-23-15.6-41-24c-1.9-0.9-4.1-0.1-5,1.8c-0.9,1.9-0.1,4.1,1.8,5
		c17.5,8.1,31.2,17.1,39.7,23.3c4.7,3.4,6,10,2.9,15l-6.2,9.9c-1.6,2.6-4.2,4.4-7.3,5c-3,0.6-6.1,0-8.6-1.8c-3.6-2.5-7.2-5-10.8-7.3
		c-2.6-1.7-5.8-1.9-8.7-0.7c-2.8,1.2-4.9,3.7-5.5,6.7L201,90.1c-0.9,4.4-5.2,7.4-9.6,6.6c-2.1-0.4-4-1.6-5.3-3.5
		c-1.3-1.9-1.8-4.3-1.4-6.6l4.8-24c0.9-4.3-1.5-8.7-5.5-10.4c0,0,0,0-0.1,0l-0.1,0c-2.6-1.1-5.4-0.9-7.9,0.4
		c-2.5,1.3-4.2,3.7-4.7,6.4l-2.6,13c-0.4,1.8-1.4,3.4-2.9,4.4c-1.5,1-3.4,1.4-5.2,1c-3.7-0.7-6.2-4.4-5.4-8.1l3-15.2
		c0.5-2.5-0.1-5.1-1.5-7.2c-1.5-2.1-3.8-3.5-6.3-3.8c-21.2-3-43-1.1-63.3,5.6C66.4,55.4,46.5,68,33.4,77.3c-2.5,1.8-5.6,2.5-8.7,1.9
		c-3.1-0.6-5.7-2.4-7.3-5l-6.1-9.8c-3.1-5-1.8-11.6,2.9-15c13.7-9.9,36-23.7,64.3-33c17-5.6,34.7-8.5,52.6-8.5
		c17.9,0,35.6,2.8,52.6,8.5c1,0.3,2,0.7,2.9,1l2.7,1l3.8,1.4c1.9,0.7,4.1-0.3,4.8-2.2c0.7-1.9-0.3-4.1-2.2-4.8l-2-0.8l-4.7-1.7
		c-1-0.3-2-0.7-3-1c-17.8-5.9-36.3-8.8-55-8.8c-18.7,0-37.2,3-55,8.8C47,18.9,24,33.1,9.8,43.3C1.9,49.1-0.3,60.1,4.9,68.4l6.1,9.8
		c2.8,4.4,7.1,7.4,12.2,8.4c1.4,0.3,2.8,0.4,4.2,0.3l59.4,95c1.1,1.8,3.4,2.3,5.2,1.2s2.3-3.4,1.2-5.2L35.1,85
		c0.9-0.5,1.8-1,2.6-1.6c12.6-9.1,31.9-21.2,51.6-27.7c19.2-6.3,39.9-8.2,59.9-5.3c0.6,0.1,1,0.5,1.2,0.7c0.2,0.2,0.4,0.7,0.3,1.4
		l-3,15.2c-0.8,3.8,0,7.6,2.2,10.8c2.1,3.2,5.4,5.4,9.2,6.1c3.8,0.8,7.6,0,10.8-2.2c3.2-2.1,5.4-5.4,6.1-9.2l2.6-13
		c0.1-0.7,0.6-1.1,0.9-1.2c0.3-0.1,0.8-0.4,1.5-0.1c0,0,0,0,0,0l0.1,0c0.8,0.3,1.2,1.1,1,2l-4.8,24c-0.8,4.2,0.1,8.7,2.5,12.3
		c2.4,3.5,6,5.9,10.2,6.6c0.9,0.2,1.9,0.2,2.8,0.2c7.4,0,14.1-5.3,15.6-12.7l2.8-13.8c0.2-0.8,0.7-1.1,1-1.3c0.3-0.1,1-0.3,1.7,0.1
		c3.5,2.3,7.1,4.7,10.6,7.1c0.8,0.6,1.7,1.1,2.5,1.5l-93.2,149.1c-0.8,1.3-2.1,1.5-2.7,1.5c-0.5,0-1.8-0.1-2.7-1.5l-26.3-42.1
		c-1.1-1.8-3.4-2.3-5.2-1.2c-1.8,1.1-2.3,3.4-1.2,5.2l26.3,42.1c2,3.1,5.3,5,9.1,5c3.7,0,7.1-1.9,9.1-5l94.5-151.2
		c1.4,0,2.8-0.1,4.3-0.4c5.1-1,9.4-4,12.2-8.4l6.2-9.9C262.5,60.1,260.3,49.1,252.4,43.3z"/>
	<path class="st7" d="M109.7,149.2c8.6,0,15.5-7,15.5-15.6c0-8.6-7-15.5-15.5-15.5c-8.6,0-15.6,7-15.6,15.5
		C94.2,142.2,101.1,149.2,109.7,149.2z M109.7,125.6c4.4,0,8,3.6,8,8c0,4.4-3.6,8-8,8c-4.4,0-8-3.6-8-8
		C101.7,129.2,105.3,125.6,109.7,125.6z"/>
	<path class="st7" d="M53.3,88.7c0,8.6,7,15.5,15.6,15.5c8.6,0,15.5-7,15.5-15.5c0-8.6-7-15.6-15.5-15.6
		C60.3,73.2,53.3,80.2,53.3,88.7z M76.9,88.7c0,4.4-3.6,8-8,8s-8-3.6-8-8s3.6-8,8-8S76.9,84.3,76.9,88.7z"/>
	<path class="st7" d="M193.4,126.2c0-8.6-7-15.5-15.6-15.5c-8.6,0-15.5,7-15.5,15.5c0,8.6,7,15.6,15.5,15.6
		C186.4,141.8,193.4,134.8,193.4,126.2z M169.8,126.2c0-4.4,3.6-8,8-8c4.4,0,8,3.6,8,8s-3.6,8-8,8
		C173.4,134.2,169.8,130.6,169.8,126.2z"/>
	<path class="st7" d="M119.5,190.5c0.3,1.6,1.1,3.1,2.4,4l4,2.9c1.1,0.8,2.3,1.2,3.6,1.2c0.3,0,0.6,0,1-0.1c1.6-0.3,3.1-1.1,4-2.4
		l1.4-1.9l0.4,0.3c0.2,0.1,0.4,0.3,0.6,0.4c5.4,2.9,10.8,2.3,14.9-1.4c4-3.7,4.8-9.8,4.3-13.9c-0.3-2.3-1.1-4.6-2.4-6.9
		c-3.4-5.9-9.9-10.7-16.6-12.2c-2.6-0.6-5-0.6-7.3-0.2c-4.1,0.8-9.7,3.5-12,8.3c-2.4,5-1.2,10.3,3.1,14.6c0.2,0.2,0.4,0.3,0.6,0.5
		l0.4,0.3l-1.4,1.9C119.6,187.3,119.2,188.9,119.5,190.5z M124.7,171.8c0.9-1.8,3.7-3.6,6.6-4.2c1.3-0.2,2.7-0.2,4.3,0.1
		c4.6,1,9.4,4.6,11.7,8.6c0.8,1.4,1.3,2.7,1.4,4c0.3,3-0.5,6.2-2,7.6c-1.1,1-2.8,2-6.1,0.4l-1.2-0.9c-2.8-2.1-6.8-1.5-8.9,1.4
		l-1.3,1.8l-1.8-1.3l1.3-1.8c2.1-2.8,1.5-6.8-1.4-8.9l-1.2-0.9C123.6,175.1,124,173.2,124.7,171.8z"/>
	<path class="st7" d="M135.1,88.8c4.5-5.5,5.1-11.5,1.8-16.9c-3.2-5.3-10-7.6-14.8-8c-2.7-0.2-5.5,0.2-8.4,1.1
		C106.2,67.6,99.2,74,96,81.3c-1.2,2.8-1.9,5.6-1.9,8.3c0,4.8,1.7,11.7,6.7,15.4c5.1,3.8,11.1,3.7,17-0.3c0.2-0.1,0.4-0.3,0.6-0.5
		l1-0.9l2.4,2.6c1.2,1.3,2.8,2.1,4.6,2.1c0.1,0,0.2,0,0.3,0c1.7,0,3.2-0.6,4.5-1.7l4.3-4c1.3-1.2,2.1-2.8,2.1-4.6
		c0.1-1.8-0.5-3.5-1.7-4.8l-2.4-2.6l1-0.9C134.8,89.2,135,89,135.1,88.8z M129.4,83.9l-1.4,1.3c-2.8,2.6-3,6.9-0.4,9.7l2.3,2.5
		l-3,2.8l-2.3-2.5c-2.6-2.8-6.9-3-9.7-0.4l-1.4,1.3c-4.1,2.7-6.6,1.5-8.2,0.4c-2.4-1.8-3.7-6.1-3.7-9.3c0-1.6,0.4-3.4,1.2-5.3
		c2.3-5.3,7.8-10.3,13.3-12.2c1.6-0.5,3.1-0.8,4.5-0.8c0.3,0,0.6,0,0.9,0c3.3,0.3,7.4,1.9,9,4.4C131.5,77.5,132.5,80.1,129.4,83.9z"
		/>
</g>
</svg>
